<svg xmlns="http://www.w3.org/2000/svg" xmlns:xlink="http://www.w3.org/1999/xlink" width="640" zoomAndPan="magnify" viewBox="0 0 480 719.999996" height="960" preserveAspectRatio="xMidYMid meet" version="1.0"><defs><clipPath id="id1"><path d="M 88 175 L 392.351562 175 L 392.351562 539 L 88 539 Z M 88 175 " clip-rule="nonzero"/></clipPath></defs><rect x="-48" width="576" fill="#ffffff" y="-72" height="863.999995" fill-opacity="1"/><rect x="-48" width="576" fill="#7e433f" y="-72" height="863.999995" fill-opacity="1"/><path fill="#472726" d="M 362.085938 295.257812 C 362.011719 294.820312 362.011719 294.386719 361.9375 293.953125 C 364.765625 292.503906 366.867188 289.753906 367.59375 286.640625 C 368.320312 283.53125 367.738281 279.695312 365.855469 277.160156 C 350.628906 271.515625 340.261719 257.328125 333.15625 242.777344 C 326.050781 228.230469 321.917969 211.941406 312.203125 198.984375 C 297.125 178.71875 273.632812 172.566406 256.234375 178.429688 C 230.277344 168.945312 206.933594 187.839844 188.664062 207.308594 C 170.394531 226.78125 158.214844 241.332031 147.265625 246.253906 C 147.265625 246.253906 150.890625 249.871094 159.375 248.351562 C 159.375 248.351562 151.761719 261.234375 154.152344 272.238281 C 154.152344 272.238281 157.851562 264.132812 163.289062 259.933594 C 163.289062 259.933594 160.605469 272.164062 169.742188 281.429688 C 168.289062 278.246094 166.914062 268.113281 171.480469 262.105469 C 171.480469 262.105469 170.539062 282.371094 179.671875 285.050781 C 180.832031 285.265625 182.066406 285.484375 183.226562 285.628906 C 195.40625 296.558594 199.25 325.003906 199.25 325.003906 C 197.945312 328.335938 195.769531 331.230469 193.011719 333.472656 C 193.011719 334.703125 193.011719 337.960938 194.679688 339.554688 C 195.695312 340.496094 196.929688 341.148438 198.234375 341.726562 C 198.160156 341.796875 198.089844 341.871094 198.089844 341.941406 C 196.132812 341.796875 194.246094 341.148438 192.722656 339.917969 C 193.882812 341.871094 195.332031 343.535156 197.4375 344.40625 C 197.4375 344.476562 197.4375 344.621094 197.507812 344.695312 C 197.582031 345.128906 197.796875 345.5625 197.726562 345.996094 C 197.582031 346.71875 196.785156 347.011719 196.058594 347.226562 C 196.492188 347.300781 196.855469 347.515625 197.289062 347.445312 C 197.726562 347.445312 198.160156 347.300781 198.449219 347.011719 C 198.957031 346.429688 198.8125 345.636719 198.886719 344.910156 C 199.394531 345.054688 199.828125 345.128906 200.335938 345.199219 C 200.191406 348.167969 201.351562 351.425781 203.234375 353.523438 C 205.699219 356.203125 209.398438 357.652344 213.023438 357.867188 C 215.851562 358.085938 218.679688 357.578125 221.433594 356.78125 C 221.289062 357.433594 221.433594 358.085938 221.652344 358.664062 C 222.011719 359.386719 222.667969 359.964844 223.464844 360.257812 C 223.027344 359.386719 222.8125 358.300781 223.246094 357.433594 C 223.390625 357.214844 223.535156 357 223.679688 356.78125 C 223.609375 357.144531 223.609375 357.433594 223.679688 357.652344 C 224.40625 359.675781 226 361.34375 227.957031 362.210938 C 229.335938 362.789062 230.859375 362.863281 232.308594 362.5 C 232.308594 363.007812 232.453125 363.511719 232.742188 363.949219 C 232.816406 364.09375 232.960938 364.308594 233.105469 364.453125 C 232.382812 364.527344 231.582031 364.527344 230.859375 364.382812 C 231.582031 365.683594 233.25 366.121094 234.628906 365.828125 C 235.425781 365.683594 236.152344 365.25 236.804688 364.742188 C 237.746094 365.394531 238.832031 365.828125 239.847656 366.121094 C 243.402344 366.988281 247.242188 366.84375 250.722656 365.683594 L 265.949219 358.15625 C 265.660156 357.070312 273.125 340.496094 286.757812 321.53125 C 300.386719 302.496094 302.921875 325.730469 302.921875 325.730469 L 314.089844 337.746094 L 314.160156 339.191406 C 314.453125 338.757812 314.742188 338.25 314.957031 337.746094 L 318.582031 328.988281 L 329.023438 336.082031 C 334.460938 334.054688 339.972656 329.78125 342.945312 322.542969 C 343.523438 322.980469 344.105469 323.269531 344.757812 323.484375 C 344.25 325.222656 343.304688 326.816406 342 328.117188 C 343.523438 328.046875 344.757812 326.960938 345.625 325.65625 C 345.988281 325.078125 346.351562 324.425781 346.640625 323.773438 C 346.859375 323.773438 347.148438 323.773438 347.367188 323.773438 C 348.890625 323.558594 350.410156 322.761719 351.355469 321.53125 C 350.554688 322.183594 349.25 322.183594 348.019531 322.039062 C 348.238281 321.820312 348.382812 321.675781 348.597656 321.457031 C 349.398438 320.445312 350.195312 319.289062 350.339844 317.984375 C 350.339844 317.839844 350.339844 317.695312 350.339844 317.550781 C 356.210938 315.234375 362.011719 308.648438 362.15625 298.730469 C 362.664062 298.441406 363.171875 298.078125 363.605469 297.71875 C 365.78125 295.980469 367.59375 293.734375 367.8125 290.914062 C 366.652344 292.867188 364.476562 294.53125 362.085938 295.257812 Z M 234.339844 363.875 C 234.046875 363.222656 233.976562 362.5 234.121094 361.847656 C 234.121094 361.777344 234.195312 361.777344 234.195312 361.703125 C 234.484375 362.355469 234.917969 362.933594 235.425781 363.441406 C 235.0625 363.585938 234.699219 363.730469 234.339844 363.875 Z M 344.902344 321.167969 C 344.464844 320.953125 344.03125 320.589844 343.8125 320.15625 C 344.03125 319.503906 344.25 318.851562 344.394531 318.203125 C 344.464844 318.203125 344.539062 318.203125 344.613281 318.203125 C 345.046875 319.140625 345.191406 320.226562 345.191406 321.3125 C 345.117188 321.242188 345.046875 321.242188 344.902344 321.167969 Z M 348.019531 320.082031 C 347.875 320.664062 347.65625 321.167969 347.367188 321.675781 C 347.582031 320.808594 347.65625 319.9375 347.730469 319.070312 C 347.730469 318.78125 347.730469 318.417969 347.730469 318.128906 C 347.800781 318.128906 347.945312 318.058594 348.019531 318.058594 C 348.089844 318.707031 348.164062 319.433594 348.019531 320.082031 Z M 348.019531 320.082031 " fill-opacity="1" fill-rule="nonzero"/><path fill="#110c0e" d="M 329.097656 335.789062 C 321.628906 323.847656 325.617188 295.328125 324.382812 286.207031 L 284.796875 291.347656 L 258.917969 329.78125 L 266.019531 357.941406 L 286.609375 347.804688 C 288.496094 349.253906 291.832031 350.195312 294.804688 349.90625 C 294.367188 350.265625 293.859375 350.558594 293.355469 350.847656 C 292.554688 351.207031 291.613281 351.425781 290.742188 351.207031 C 295.964844 353.164062 301.617188 349.542969 301.765625 344.476562 C 301.980469 344.476562 302.199219 344.550781 302.488281 344.550781 C 301.402344 346.359375 305.460938 350.050781 310.027344 346.71875 C 309.449219 348.820312 307.128906 349.832031 307.128906 349.832031 C 312.132812 349.035156 312.710938 346.359375 311.480469 343.101562 C 311.332031 342.738281 311.1875 342.449219 311.042969 342.234375 C 312.640625 341.148438 314.015625 339.699219 314.957031 337.671875 L 314.160156 337.527344 C 315.828125 328.84375 311.625 318.925781 311.550781 318.78125 C 311.550781 318.78125 317.351562 328.625 315.539062 337.816406 L 315.105469 337.746094 C 315.609375 338.542969 316.410156 339.191406 317.351562 339.480469 C 318.875 339.917969 320.613281 339.480469 321.992188 338.6875 C 320.6875 338.398438 319.308594 337.816406 318.367188 336.875 C 321.339844 337.527344 325.179688 337.238281 329.097656 335.789062 Z M 307.492188 345.78125 C 305.535156 346.359375 305.097656 345.128906 304.953125 344.40625 C 306.402344 344.1875 307.925781 343.824219 309.449219 343.101562 C 309.449219 343.101562 310.171875 344.984375 307.492188 345.78125 Z M 315.03125 337.527344 C 315.03125 337.601562 315.105469 337.671875 315.175781 337.746094 L 314.957031 337.671875 C 314.957031 337.601562 315.03125 337.601562 315.03125 337.527344 Z M 315.03125 337.527344 " fill-opacity="1" fill-rule="nonzero"/><path fill="#7e433f" d="M 325.109375 369.667969 C 319.164062 378.136719 311.550781 385.445312 302.5625 390.65625 C 285.957031 400.355469 259.714844 423.589844 241.734375 416.714844 C 231.003906 412.589844 226.726562 384.289062 220.128906 374.949219 C 229.625 374.589844 242.097656 372.851562 244.996094 368.074219 C 247.96875 363.222656 247.097656 348.601562 246.375 343.824219 C 244.851562 333.183594 252.609375 323.269531 262.394531 318.851562 C 265.660156 317.40625 269.210938 316.679688 272.691406 315.957031 C 278.273438 314.800781 283.855469 315.015625 289.4375 313.859375 C 287.335938 319.140625 289.222656 345.925781 289.4375 354.03125 C 289.65625 362.136719 304.375 367.929688 313.582031 368.726562 C 317.570312 369.085938 321.410156 369.304688 325.109375 369.667969 Z M 325.109375 369.667969 " fill-opacity="1" fill-rule="nonzero"/><path fill="#472726" d="M 391.445312 500.027344 C 374.265625 509.65625 336.347656 522.613281 336.347656 522.613281 C 333.15625 517.472656 333.230469 504.300781 332.429688 494.457031 C 332.070312 489.824219 331.34375 480.628906 330.402344 471.507812 C 324.820312 483.597656 316.769531 526.449219 316.769531 526.449219 C 225.785156 548.164062 175.394531 529.273438 175.394531 529.273438 C 173.4375 522.902344 172.714844 516.023438 172.496094 510.164062 C 172.496094 510.164062 170.03125 521.09375 164.882812 528.257812 C 156.910156 526.664062 149.367188 525 142.335938 523.265625 C 112.609375 516.023438 92.746094 508.496094 92.746094 508.496094 C 91.367188 507.992188 89.265625 507.410156 89.265625 507.410156 C 89.046875 498.507812 92.019531 497.421875 92.671875 494.238281 C 93.324219 491.054688 93.6875 486.421875 96.296875 489.027344 L 98.183594 489.824219 L 139.363281 465.429688 L 185.402344 387.183594 C 190.039062 378.640625 199.03125 372.921875 210.050781 374.660156 L 223.320312 373.574219 L 229.191406 372.996094 L 232.960938 372.34375 C 235.207031 371.835938 237.382812 370.96875 238.472656 371.042969 C 239.632812 371.113281 239.703125 371.910156 239.703125 371.910156 L 237.671875 372.5625 C 237.671875 372.5625 235.789062 374.878906 235.859375 377.773438 C 236.007812 381.175781 239.558594 383.851562 239.558594 383.851562 C 245.574219 388.484375 246.953125 388.628906 248.1875 391.816406 C 249.347656 395 250 409.40625 250 409.40625 C 255.4375 396.808594 259.421875 391.597656 263.410156 388.847656 C 267.398438 386.023438 289.65625 382.914062 297.847656 370.390625 L 308.578125 367.855469 C 310.464844 368.289062 312.277344 368.582031 313.945312 368.726562 C 330.546875 370.171875 346.425781 370.101562 357.878906 382.1875 C 367.449219 392.320312 383.398438 472.160156 387.460938 479.90625 C 391.445312 487.578125 391.445312 497.207031 391.445312 500.027344 Z M 391.445312 500.027344 " fill-opacity="1" fill-rule="nonzero"/><path fill="#110c0e" d="M 209.179688 434.882812 C 209.179688 434.882812 230.277344 448.128906 270.589844 438.214844 C 270.589844 438.214844 254.203125 459.785156 235.5 457.03125 C 216.792969 454.28125 209.179688 434.882812 209.179688 434.882812 Z M 209.179688 434.882812 " fill-opacity="1" fill-rule="nonzero"/><path fill="#a7534c" d="M 192.652344 368.726562 C 192.070312 371.765625 186.054688 378.0625 183.226562 378.785156 C 183.082031 381.464844 186.996094 390.65625 186.488281 395.21875 C 185.835938 401.226562 179.816406 406.148438 176.628906 407.523438 C 174.308594 410.34375 164.8125 434.8125 157.414062 451.75 C 151.472656 465.429688 148.859375 487.578125 145.378906 499.449219 C 138.128906 497.640625 105.289062 499.667969 96.082031 489.027344 C 99.777344 476.648438 105.867188 462.027344 112.683594 450.734375 C 123.921875 432.207031 144.074219 392.902344 143.496094 389.933594 C 142.84375 386.894531 136.753906 361.414062 135.957031 358.664062 C 135.15625 355.914062 132.984375 348.746094 134.214844 347.371094 C 136.101562 344.984375 141.902344 339.046875 146.6875 334.125 C 145.742188 329.058594 144.875 323.992188 143.929688 318.851562 C 143.785156 318.128906 143.714844 317.40625 144.074219 316.828125 C 144.4375 316.320312 145.089844 316.101562 145.671875 316.03125 C 148.0625 315.742188 150.382812 317.1875 151.976562 318.996094 C 153.574219 320.808594 154.660156 323.050781 155.167969 325.367188 C 160.242188 319.9375 169.742188 309.441406 172.929688 305.75 C 174.019531 304.449219 178.441406 306.476562 177.136719 312.554688 C 175.757812 318.636719 163.070312 333.257812 161.910156 334.996094 C 164.160156 333.328125 166.117188 332.96875 167.785156 333.328125 C 169.8125 333.765625 171.84375 336.441406 172.714844 337.816406 C 173.65625 339.265625 173.148438 343.390625 173.148438 343.390625 C 173.148438 343.390625 174.308594 342.449219 175.539062 342.015625 C 176.773438 341.582031 180.6875 344.984375 181.777344 346.648438 C 182.863281 348.3125 182.5 351.644531 182.5 351.644531 C 183.734375 351.136719 185.328125 350.703125 186.488281 351.207031 C 187.722656 351.714844 189.605469 354.25 190.1875 356.421875 C 190.765625 358.519531 192.941406 367.207031 192.652344 368.726562 Z M 309.8125 272.382812 C 303.578125 274.265625 300.386719 281.503906 300.386719 281.503906 C 296.179688 279.257812 289.222656 273.6875 289.222656 273.6875 C 289.222656 273.6875 285.8125 273.832031 281.027344 269.921875 C 276.027344 265.507812 270.296875 259.355469 263.992188 250.957031 C 263.410156 264.710938 272.691406 273.832031 272.691406 273.832031 C 272.691406 273.832031 269.863281 274.625 265.515625 275.855469 C 262.542969 276.652344 255.871094 272.238281 255.363281 267.242188 C 255.363281 267.242188 255.292969 276.148438 258.699219 277.667969 C 254.421875 278.753906 249.636719 279.984375 244.996094 281.070312 C 242.242188 280.851562 231.875 267.386719 232.382812 257.472656 C 232.382812 257.472656 229.625 271.660156 237.601562 282.660156 C 231.292969 283.890625 226.074219 284.6875 223.824219 284.179688 C 216.359375 282.589844 207.367188 269.054688 203.886719 253.925781 C 201.496094 274.410156 208.671875 285.558594 208.671875 285.558594 C 208.671875 285.558594 206.136719 285.847656 202.292969 286.0625 C 197.144531 286.207031 196.421875 266.808594 196.421875 266.808594 C 193.59375 271.371094 192.867188 281.070312 194.320312 286.207031 C 190.839844 286.207031 187.140625 285.992188 183.445312 285.484375 C 183.371094 285.703125 185.472656 290.550781 186.414062 293.300781 C 190.113281 303.941406 195.332031 324.644531 196.785156 329.636719 C 198.667969 335.863281 224.984375 354.320312 235.933594 357.433594 C 246.882812 360.546875 286.03125 343.96875 296.980469 312.410156 C 296.980469 312.410156 321.121094 303.363281 323.875 290.550781 C 326.703125 277.738281 316.046875 270.5 309.8125 272.382812 Z M 309.8125 272.382812 " fill-opacity="1" fill-rule="nonzero"/><path fill="#f3eff9" d="M 175.179688 529.199219 C 177.425781 509.871094 170.972656 479.90625 173.222656 458.40625 C 175.832031 433.582031 197.945312 385.664062 209.035156 373.140625 C 210.632812 371.984375 215.199219 373.71875 221.652344 373.140625 C 228.101562 372.5625 231.945312 370.898438 233.6875 370.605469 C 234.339844 370.460938 234.847656 371.691406 234.847656 371.691406 L 232.742188 372.273438 C 222.59375 382.042969 210.195312 421.058594 208.238281 433 C 208.238281 433 223.535156 448.636719 229.988281 450.085938 C 236.441406 451.53125 267.761719 435.316406 280.449219 436.546875 C 283.566406 412.226562 294.949219 368.507812 301.183594 365.539062 C 304.011719 364.453125 318.148438 368 325.6875 367.566406 C 328.589844 370.101562 328.589844 370.101562 328.589844 370.101562 C 328.589844 370.101562 322.714844 378.496094 321.484375 387.253906 C 311.839844 456.453125 310.828125 501.257812 311.695312 510.8125 C 312.421875 518.777344 321.917969 516.605469 321.917969 516.605469 L 320.105469 525.433594 C 235.933594 550.695312 175.179688 529.199219 175.179688 529.199219 Z M 277.332031 287.003906 C 274.214844 286.933594 270.515625 286.425781 266.746094 286.207031 C 259.859375 285.773438 250.433594 290.839844 247.386719 295.691406 C 247.386719 295.691406 247.386719 308.792969 256.234375 312.410156 C 259.640625 312.988281 273.5625 312.195312 277.332031 305.316406 L 280.160156 294.53125 L 278.707031 288.019531 Z M 204.105469 293.589844 C 200.988281 294.097656 198.378906 295.402344 196.421875 296.632812 C 196.132812 310.3125 201.570312 315.015625 201.570312 315.015625 C 203.816406 316.609375 208.3125 318.128906 213.167969 318.203125 L 222.230469 300.902344 L 218.605469 295.835938 L 215.707031 294.386719 C 212.660156 292.722656 208.820312 292.796875 204.105469 293.589844 Z M 204.105469 293.589844 " fill-opacity="1" fill-rule="nonzero"/><path fill="#472726" d="M 260.65625 295.691406 C 260.65625 294.386719 260.800781 293.085938 261.089844 291.925781 C 262.46875 295.546875 265.949219 298.078125 270.007812 298.078125 C 274.792969 298.078125 278.707031 294.605469 279.433594 290.042969 C 280.015625 291.78125 280.375 293.734375 280.375 295.761719 C 280.375 303.074219 275.953125 309.082031 270.515625 309.082031 C 265.078125 309.007812 260.65625 303.074219 260.65625 295.691406 Z M 261.453125 290.480469 C 261.308594 290.914062 261.164062 291.347656 261.089844 291.855469 C 261.234375 291.347656 261.382812 290.914062 261.453125 290.480469 Z M 261.089844 291.925781 C 261.089844 291.925781 261.089844 291.855469 261.089844 291.78125 C 261.089844 291.855469 261.089844 291.855469 261.089844 291.925781 Z M 230.570312 315.886719 C 230.570312 315.886719 228.320312 321.023438 227.234375 323.414062 L 229.335938 324.355469 C 230.496094 321.675781 230.929688 318.78125 230.570312 315.886719 Z M 243.183594 335.789062 C 251.519531 333.257812 250.578125 327.464844 250.578125 327.464844 C 249.054688 331.59375 245.867188 333.546875 242.605469 334.414062 C 237.671875 335.71875 232.164062 336.007812 232.164062 336.007812 C 232.234375 336.082031 236.949219 337.601562 243.183594 335.789062 Z M 221.796875 300.902344 C 221.867188 301.046875 221.867188 301.117188 221.941406 301.265625 C 221.867188 301.191406 221.867188 301.046875 221.796875 300.902344 Z M 221.359375 300.035156 C 221.507812 300.25 221.578125 300.46875 221.722656 300.683594 C 221.578125 300.539062 221.507812 300.324219 221.359375 300.035156 Z M 221.722656 300.757812 C 221.722656 300.828125 221.796875 300.902344 221.796875 300.902344 C 221.796875 300.828125 221.722656 300.828125 221.722656 300.757812 Z M 221.941406 301.265625 C 220.347656 304.160156 217.300781 306.113281 213.75 306.113281 C 209.109375 306.113281 205.265625 302.785156 204.539062 298.367188 C 204.6875 298.078125 204.832031 297.789062 204.976562 297.574219 C 203.742188 299.742188 203.019531 302.421875 203.019531 305.316406 C 203.019531 312.484375 207.441406 318.273438 212.878906 318.273438 C 218.316406 318.273438 222.738281 312.484375 222.738281 305.316406 C 222.738281 304.738281 222.664062 304.160156 222.664062 303.652344 C 222.664062 303.652344 222.519531 302.640625 221.941406 301.265625 Z M 237.019531 356.566406 L 236.875 356.566406 C 233.902344 356.492188 228.394531 354.105469 227.597656 353.8125 C 228.105469 354.464844 233.324219 358.589844 236.875 358.734375 L 237.019531 358.734375 C 237.457031 358.734375 238.035156 358.734375 238.6875 358.734375 C 243.835938 358.734375 255.292969 357.652344 272.328125 345.34375 C 272.328125 345.34375 252.390625 354.320312 246.519531 355.625 C 241.804688 356.710938 238.6875 356.636719 237.019531 356.566406 Z M 154.734375 343.679688 C 156.835938 341.148438 159.375 337.960938 162.347656 335.429688 L 161.402344 334.34375 C 158.359375 336.949219 155.675781 340.207031 153.574219 342.738281 C 151.617188 345.128906 149.152344 348.964844 149.152344 348.964844 C 150.671875 348.675781 152.339844 346.574219 154.734375 343.679688 Z M 173.65625 343.96875 L 172.785156 342.8125 C 169.523438 345.273438 165.609375 350.339844 162.492188 354.394531 C 160.242188 357.289062 157.921875 361.777344 157.921875 361.777344 C 159.011719 361.199219 160.75 359.027344 163.652344 355.261719 C 166.695312 351.28125 170.464844 346.285156 173.65625 343.96875 Z M 182.136719 351.425781 C 179.890625 352.800781 176.339844 357.144531 172.859375 361.34375 C 170.394531 364.308594 167.347656 369.375 167.347656 369.375 C 168.507812 368.941406 170.464844 366.480469 173.945312 362.28125 C 177.136719 358.375 180.832031 353.886719 182.863281 352.65625 Z M 181.847656 370.460938 C 181.414062 368.726562 181.050781 367.496094 181.050781 367.496094 C 180.832031 369.449219 181.050781 372.054688 181.484375 374.445312 C 181.484375 374.445312 181.484375 374.515625 181.484375 374.515625 C 181.777344 376.253906 182.136719 377.84375 182.429688 379.003906 L 183.804688 378.640625 C 183.589844 377.699219 183.152344 376.035156 182.71875 374.296875 L 182.863281 374.296875 C 182.355469 369.519531 186.054688 365.828125 186.054688 365.828125 C 183.589844 366.988281 182.429688 368.796875 181.847656 370.460938 Z M 185.328125 365.179688 C 185.328125 365.105469 186.996094 359.75 188.15625 358.011719 L 186.921875 357.214844 C 185.691406 359.171875 185.328125 365.179688 185.328125 365.179688 Z M 149.441406 364.308594 C 148.859375 363.875 148.28125 363.511719 147.699219 363.078125 C 147.046875 362.644531 146.394531 362.210938 145.816406 361.703125 C 144.4375 360.546875 141.394531 358.011719 141.394531 358.011719 C 142.117188 359.894531 143.351562 361.488281 144.875 362.789062 C 145.527344 363.367188 146.25 363.804688 146.902344 364.238281 C 147.484375 364.597656 147.992188 364.960938 148.5 365.394531 C 149.804688 366.410156 152.195312 368.21875 152.195312 368.21875 C 151.976562 366.84375 151.035156 365.46875 149.441406 364.308594 Z M 154.082031 374.515625 C 155.097656 377.554688 158.066406 379.65625 161.257812 379.65625 C 161.332031 379.65625 161.402344 379.65625 161.476562 379.65625 L 161.402344 378.207031 C 158.9375 378.351562 154.082031 374.515625 154.082031 374.515625 Z M 181.125 347.226562 L 177.933594 354.898438 C 181.269531 351.644531 181.125 347.371094 181.125 347.226562 Z M 153.355469 327.902344 L 146.25 333.621094 L 147.339844 334.558594 Z M 168.582031 409.765625 C 169.234375 409.910156 169.957031 409.984375 170.609375 409.984375 C 172.859375 409.984375 175.035156 409.261719 176.847656 407.957031 L 175.976562 406.796875 C 173.945312 408.246094 168.582031 409.765625 168.582031 409.765625 Z M 142.84375 390.003906 C 143.785156 392.25 146.105469 396.808594 146.105469 396.808594 C 145.816406 394.277344 145.164062 391.816406 144.148438 389.425781 Z M 318.945312 380.453125 C 316.917969 388.558594 314.667969 402.816406 313 428.730469 C 313 428.730469 318.148438 390.152344 320.105469 382.042969 C 322.0625 373.9375 323.804688 371.546875 324.746094 370.316406 L 324.890625 370.101562 C 324.964844 370.027344 320.832031 373.066406 318.945312 380.453125 Z M 283.132812 513.855469 C 283.710938 513.78125 284 513.78125 284 513.78125 C 283.710938 513.855469 283.421875 513.855469 283.132812 513.855469 Z M 246.953125 501.765625 C 238.980469 496.046875 235.425781 488.230469 235.425781 488.230469 C 235.5 488.519531 245.867188 514.214844 276.460938 514.214844 C 278.5625 514.214844 280.8125 514.070312 283.132812 513.855469 C 279.578125 514.214844 264.714844 514.503906 246.953125 501.765625 Z M 231.511719 491.847656 C 231.511719 491.847656 232.886719 472.667969 226.796875 449.144531 C 226.796875 449.144531 230.421875 479.832031 231.511719 491.847656 Z M 198.886719 427.933594 C 204.394531 429.671875 209.179688 434.882812 209.179688 434.882812 L 208.382812 432.421875 C 203.816406 427.863281 198.886719 427.933594 198.886719 427.933594 Z M 280.230469 437.128906 C 280.230469 437.128906 305.679688 440.53125 306.257812 440.675781 C 306.839844 440.746094 280.519531 435.753906 280.519531 435.753906 Z M 189.824219 433.21875 C 189.027344 434.523438 188.953125 436.1875 188.953125 437.707031 C 189.027344 439.082031 189.171875 440.601562 189.894531 441.761719 C 190.621094 442.992188 192.070312 443.859375 193.449219 443.570312 C 194.320312 443.425781 195.042969 442.773438 195.550781 442.050781 C 196.058594 441.324219 196.347656 440.457031 196.566406 439.660156 C 197.074219 437.632812 197.289062 435.460938 196.492188 433.507812 C 195.261719 430.46875 191.417969 430.46875 189.824219 433.21875 Z M 279.941406 442.699219 C 279.144531 444.003906 279.070312 445.667969 279.070312 447.1875 C 279.144531 448.5625 279.289062 450.085938 280.015625 451.242188 C 280.738281 452.472656 282.1875 453.339844 283.566406 453.050781 C 284.4375 452.90625 285.160156 452.253906 285.667969 451.53125 C 286.175781 450.808594 286.464844 449.9375 286.683594 449.144531 C 287.191406 447.117188 287.410156 444.945312 286.609375 442.992188 C 285.378906 439.949219 281.535156 439.949219 279.941406 442.699219 Z M 309.230469 280.128906 C 311.117188 277.667969 313.945312 277.378906 313.945312 277.378906 C 312.058594 277.160156 310.027344 277.8125 308.433594 279.113281 C 306.839844 280.417969 305.824219 282.300781 305.605469 284.179688 C 305.460938 285.339844 305.679688 286.570312 305.824219 287.65625 C 305.96875 288.957031 306.1875 290.117188 305.96875 291.347656 C 305.824219 292.214844 305.390625 293.085938 305.027344 293.953125 C 304.664062 294.820312 304.230469 295.691406 304.011719 296.703125 C 303.792969 297.644531 303.867188 298.367188 304.230469 298.949219 C 304.664062 299.742188 305.605469 300.25 306.695312 300.25 C 306.765625 300.25 306.839844 300.25 306.910156 300.25 C 307.925781 300.179688 308.796875 299.671875 309.449219 299.238281 C 309.449219 299.238281 306.402344 300.25 305.316406 298.367188 C 305.171875 298.078125 305.097656 297.574219 305.242188 296.992188 C 305.390625 296.125 305.75 295.402344 306.1875 294.53125 C 306.621094 293.589844 307.054688 292.648438 307.203125 291.636719 C 307.492188 290.261719 307.273438 288.886719 307.054688 287.582031 C 306.910156 286.496094 306.765625 285.410156 306.839844 284.398438 C 307.054688 282.734375 308.144531 281.503906 309.230469 280.128906 Z M 309.230469 280.128906 " fill-opacity="1" fill-rule="nonzero"/><path fill="#7e433f" d="M 252.679688 179.804688 C 228.03125 175.246094 210.921875 193.703125 202.726562 202.53125 C 197.144531 208.832031 190.695312 216.503906 182.5 225.839844 C 182.5 225.839844 169.449219 242.488281 170.753906 247.484375 C 171.554688 247.628906 172.351562 247.773438 172.566406 247.84375 C 172.566406 247.84375 167.277344 261.234375 167.347656 264.421875 L 165.679688 263.695312 C 165.171875 268.113281 165.390625 273.105469 167.058594 277.957031 C 161.332031 270.285156 163.289062 259.714844 163.289062 259.714844 C 157.851562 263.988281 154.152344 272.019531 154.152344 272.019531 C 151.761719 261.089844 159.375 248.132812 159.375 248.132812 C 150.890625 249.65625 147.265625 246.035156 147.265625 246.035156 C 158.214844 241.1875 170.394531 226.5625 188.664062 207.09375 C 202.800781 192.039062 219.984375 177.34375 239.050781 175.824219 C 248.402344 174.808594 255 177.707031 255.796875 178.066406 C 258.988281 176.691406 262.902344 175.75 267.6875 175.824219 C 267.6875 175.824219 278.273438 176.621094 282.1875 177.851562 C 282.1875 177.851562 261.453125 176.910156 244.707031 187.839844 C 244.632812 187.910156 246.953125 183.277344 252.679688 179.804688 Z M 181.558594 249.363281 C 180.90625 249.726562 180.253906 250.449219 179.527344 250.304688 C 178.949219 250.160156 178.585938 249.507812 178.152344 249.074219 C 177.644531 248.570312 176.847656 248.132812 176.121094 248.277344 C 173.945312 251.824219 173.003906 266.011719 173.003906 266.011719 C 173.65625 266.664062 174.742188 266.664062 175.539062 266.300781 C 176.046875 266.085938 176.484375 265.722656 176.992188 265.652344 C 177.789062 265.578125 178.367188 266.230469 179.019531 266.59375 C 179.601562 266.953125 180.109375 267.53125 180.832031 267.386719 C 179.890625 261.523438 181.847656 248.570312 181.847656 248.570312 C 181.484375 248.714844 181.921875 249.148438 181.558594 249.363281 Z M 199.394531 248.640625 C 199.03125 249.074219 198.742188 249.726562 198.160156 249.800781 C 197.871094 249.800781 197.582031 249.726562 197.363281 249.582031 C 195.332031 248.859375 193.085938 250.378906 190.984375 249.800781 C 190.257812 249.582031 189.535156 249.148438 188.808594 248.859375 C 188.082031 248.570312 186.707031 248.207031 186.488281 248.929688 C 185.472656 252.117188 184.675781 267.96875 184.675781 267.96875 C 185.402344 268.617188 186.054688 269.054688 187.070312 269.054688 C 187.867188 269.054688 188.519531 268.617188 189.242188 268.328125 C 189.96875 268.113281 190.839844 268.039062 191.636719 268.257812 C 192.214844 268.402344 192.652344 268.546875 193.230469 268.472656 C 193.304688 265.796875 197.796875 251.898438 197.796875 251.898438 C 197 256.601562 199.101562 268.546875 199.101562 268.546875 L 201.714844 268.617188 L 200.914062 248.425781 C 200.335938 248.351562 199.828125 248.132812 199.394531 248.640625 Z M 213.457031 247.121094 C 212.445312 247.410156 212.296875 246.46875 211.429688 247.046875 C 211.066406 247.265625 210.921875 247.699219 210.703125 248.0625 C 210.484375 248.425781 210.125 248.785156 209.6875 248.785156 C 209.398438 248.785156 209.179688 248.640625 208.890625 248.496094 C 208.09375 248.0625 206.933594 248.207031 206.0625 248.207031 C 206.0625 248.207031 209.6875 265.363281 212.296875 268.835938 C 212.660156 269.34375 213.386719 269.269531 213.894531 268.910156 C 214.109375 268.765625 214.257812 268.546875 214.472656 268.402344 C 215.054688 268.039062 215.777344 268.039062 216.429688 268.183594 C 217.082031 268.328125 217.011719 268.765625 217.664062 268.472656 C 217.664062 268.472656 212.371094 251.972656 213.457031 247.121094 Z M 228.25 245.890625 C 227.015625 245.890625 225.929688 246.46875 224.839844 246.976562 C 223.753906 247.410156 222.519531 247.84375 221.359375 247.484375 C 220.78125 247.339844 220.273438 246.976562 219.695312 246.832031 C 219.113281 246.6875 218.386719 246.613281 218.097656 247.121094 C 218.097656 247.121094 220.636719 266.085938 224.042969 268.328125 C 224.550781 268.617188 225.492188 268.113281 226.074219 268.039062 C 227.089844 267.824219 227.8125 267.679688 228.828125 268.039062 C 228.828125 268.039062 229.191406 247.628906 230.785156 245.382812 C 230.0625 246.035156 229.191406 245.816406 228.25 245.890625 Z M 235.355469 245.3125 C 235.355469 245.3125 235.355469 245.382812 235.425781 245.527344 C 235.570312 243.9375 235.355469 245.3125 235.355469 245.3125 Z M 235.355469 245.816406 C 235.136719 247.84375 237.964844 266.011719 237.964844 266.011719 L 241.804688 266.011719 C 239.847656 263.40625 235.859375 247.410156 235.425781 245.457031 C 235.425781 245.527344 235.355469 245.671875 235.355469 245.816406 Z M 252.609375 241.980469 C 252.535156 242.125 252.390625 242.269531 252.246094 242.417969 C 252.027344 242.5625 251.738281 242.5625 251.519531 242.488281 C 251.011719 242.488281 250.578125 242.417969 250.070312 242.417969 C 249.636719 242.417969 249.199219 242.34375 248.839844 242.488281 C 248.476562 242.632812 247.894531 242.851562 247.96875 243.210938 C 249.417969 250.089844 257.539062 263.261719 257.539062 263.261719 C 257.757812 263.40625 258.046875 263.046875 258.335938 263.117188 C 258.625 263.117188 258.917969 263.046875 258.988281 262.828125 C 259.0625 262.609375 259.0625 262.394531 259.207031 262.25 C 259.421875 261.960938 259.859375 261.886719 260.222656 262.03125 C 260.582031 262.175781 260.875 262.394531 261.234375 262.464844 C 261.816406 262.539062 262.542969 262.683594 263.046875 262.394531 C 262.035156 260.511719 254.785156 240.75 254.785156 240.75 C 253.839844 240.679688 253.1875 241.113281 252.609375 241.980469 Z M 307.636719 216.71875 C 305.824219 217.226562 303.792969 219.761719 301.910156 220.195312 C 301.328125 220.339844 300.675781 220.265625 300.242188 220.554688 C 299.804688 220.847656 299.515625 221.351562 299.152344 221.714844 C 297.558594 223.308594 294.296875 222.511719 293.0625 224.394531 C 292.703125 224.972656 292.554688 225.695312 292.046875 226.203125 C 291.46875 226.707031 290.597656 226.707031 289.800781 226.855469 C 288.132812 227.070312 286.464844 227.792969 285.234375 228.953125 C 284.4375 229.75 283.710938 230.691406 282.695312 231.050781 C 281.972656 231.339844 281.101562 231.269531 280.304688 231.484375 C 277.910156 232.136719 276.535156 235.105469 273.996094 235.394531 C 273.199219 235.46875 272.402344 235.324219 271.605469 235.46875 C 270.082031 235.828125 268.992188 237.421875 267.472656 237.347656 C 266.820312 237.347656 265.367188 236.84375 265.007812 237.421875 C 264.0625 237.710938 276.535156 254.285156 279.796875 256.675781 C 280.304688 257.039062 281.027344 256.75 281.609375 256.601562 C 281.828125 256.53125 281.972656 256.53125 282.117188 256.386719 C 282.261719 256.242188 282.332031 255.953125 282.480469 255.734375 C 282.769531 255.226562 283.421875 255.082031 284.074219 255.082031 C 284.652344 255.082031 285.304688 255.226562 285.886719 255.082031 C 286.25 255.011719 286.609375 254.792969 286.972656 254.648438 C 287.335938 254.433594 287.769531 254.214844 288.132812 253.996094 C 288.640625 253.707031 290.234375 253.203125 290.164062 252.621094 C 290.164062 252.621094 287.480469 249.582031 285.667969 244.585938 C 285.667969 244.585938 292.410156 252.261719 296.398438 250.378906 C 296.90625 250.160156 296.617188 249.292969 297.125 248.929688 C 297.269531 248.859375 297.414062 248.859375 297.632812 248.859375 C 298.5 248.859375 299.515625 249.148438 300.167969 248.570312 C 300.53125 248.277344 300.675781 247.773438 301.039062 247.410156 C 301.546875 246.902344 302.34375 246.832031 303.070312 246.6875 C 303.792969 246.542969 304.589844 246.109375 304.664062 245.382812 L 306.695312 245.167969 C 306.695312 245.167969 301.765625 235.972656 300.167969 234.09375 C 300.167969 234.09375 308.722656 240.535156 310.027344 243.71875 C 310.535156 243.285156 311.1875 242.777344 311.40625 242.199219 C 311.625 241.691406 311.625 241.113281 311.988281 240.75 C 312.640625 240.171875 313.582031 240.824219 314.453125 240.824219 C 314.597656 240.824219 314.742188 240.824219 314.886719 240.679688 C 315.03125 240.535156 315.105469 240.316406 315.175781 240.101562 C 315.539062 239.449219 316.480469 239.59375 317.207031 239.59375 C 317.351562 239.59375 317.496094 239.59375 317.570312 239.519531 C 317.929688 239.304688 317.785156 238.796875 317.859375 238.433594 C 318.003906 237.566406 319.089844 237.347656 319.960938 237.347656 C 320.832031 237.347656 321.917969 237.421875 322.355469 236.625 C 322.207031 236.117188 322.714844 235.324219 323.222656 235.179688 C 323.730469 235.105469 324.3125 235.179688 324.820312 235.03125 C 325.328125 234.886719 326.050781 234.527344 325.832031 234.019531 C 326.339844 233.800781 313.945312 218.746094 307.636719 216.71875 Z M 356.5 297.425781 C 352.660156 291.273438 333.882812 276.871094 333.882812 276.871094 C 335.839844 280.5625 337.867188 284.324219 338.8125 288.453125 C 339.535156 291.855469 339.535156 295.402344 340.40625 298.730469 C 341.203125 301.769531 342.800781 304.519531 344.902344 306.835938 C 345.554688 306.910156 346.132812 306.476562 346.714844 306.113281 C 347.292969 305.679688 347.367188 304.957031 347.582031 304.304688 C 347.875 303.433594 348.382812 302.566406 349.25 302.347656 C 349.976562 302.132812 350.773438 302.421875 351.5 302.203125 C 352.367188 301.914062 352.875 300.902344 353.167969 300.035156 C 353.527344 299.164062 354.035156 298.222656 354.90625 297.933594 C 355.269531 297.863281 355.632812 297.863281 355.992188 297.789062 C 356.355469 297.71875 356.648438 297.71875 356.5 297.425781 Z M 306.910156 283.242188 C 305.96875 285.265625 307.347656 289.464844 307.347656 291.273438 C 307.347656 293.085938 305.171875 296.558594 305.679688 298.875 C 306.1875 301.191406 310.027344 299.382812 310.027344 299.382812 C 325.761719 291.78125 318.945312 276.796875 314.597656 277.523438 C 309.449219 277.160156 307.855469 281.140625 306.910156 283.242188 Z M 306.910156 283.242188 " fill-opacity="1" fill-rule="nonzero"/><g clip-path="url(#id1)"><path fill="#110c0e" d="M 259.929688 295.691406 C 259.929688 303.289062 264.570312 309.515625 270.296875 309.660156 C 263.699219 312.121094 255.871094 312.410156 255.871094 312.410156 C 256.523438 312.554688 258.769531 314.4375 267.328125 312.265625 C 271.457031 311.253906 273.921875 309.515625 275.445312 308.066406 C 278.855469 305.75 281.171875 301.046875 281.171875 295.617188 C 281.171875 292.796875 280.519531 289.972656 279.289062 287.65625 C 282.769531 287.078125 282.550781 285.050781 282.550781 285.050781 C 278.054688 286.136719 275.445312 283.675781 265.875 284.109375 C 255.945312 284.542969 249.636719 290.332031 247.460938 295.617188 C 247.460938 295.617188 254.421875 289.898438 261.816406 287.726562 C 260.582031 290.117188 259.929688 292.867188 259.929688 295.691406 Z M 279.433594 292.722656 C 279.578125 293.734375 279.722656 294.75 279.722656 295.761719 C 279.722656 302.710938 275.589844 308.355469 270.589844 308.355469 C 265.585938 308.355469 261.453125 302.710938 261.453125 295.761719 C 261.453125 295.257812 261.453125 294.75 261.527344 294.242188 C 263.046875 296.488281 265.367188 298.078125 267.980469 298.585938 C 268.269531 300.179688 269.792969 301.988281 272.328125 301.117188 C 274.429688 300.394531 274.578125 298.585938 274.503906 297.789062 C 276.679688 296.777344 278.417969 294.964844 279.433594 292.722656 Z M 263.773438 287.367188 C 264.789062 287.148438 265.804688 287.003906 266.746094 287.003906 C 268.414062 287.078125 270.007812 287.222656 271.605469 287.367188 C 274.214844 287.871094 276.171875 288.019531 277.695312 287.945312 C 278.054688 288.597656 278.417969 289.394531 278.707031 290.117188 C 277.984375 294.316406 274.359375 297.355469 270.007812 297.355469 C 266.457031 297.355469 263.195312 295.183594 261.816406 291.855469 C 262.25 290.1875 262.902344 288.667969 263.773438 287.367188 Z M 218.027344 294.964844 C 215.054688 292.214844 210.847656 290.839844 205.773438 291.492188 C 198.597656 292.359375 193.738281 297.644531 192.070312 297.136719 C 192.070312 297.136719 192.867188 299.886719 197.363281 297.644531 L 198.015625 297.210938 C 200.117188 295.90625 202.945312 294.027344 206.0625 293.808594 C 206.425781 293.808594 206.859375 293.734375 207.222656 293.734375 C 204.179688 296.195312 202.292969 300.539062 202.292969 305.316406 C 202.292969 310.238281 204.324219 314.582031 207.441406 317.042969 C 203.816406 316.175781 201.570312 315.089844 201.570312 315.089844 C 201.570312 315.089844 203.308594 317.621094 208.019531 318.5625 C 209.179688 318.78125 210.195312 318.851562 211.066406 318.851562 C 211.644531 318.996094 212.226562 319.070312 212.878906 319.070312 C 218.75 319.070312 223.464844 312.917969 223.464844 305.390625 C 223.464844 304.882812 223.464844 304.304688 223.390625 303.582031 C 223.390625 303.433594 222.375 298.222656 218.027344 294.964844 Z M 209.398438 294.027344 C 210.484375 293.953125 211.5 294.027344 212.445312 294.171875 C 214.546875 294.675781 216.214844 295.402344 217.589844 296.339844 C 219.476562 297.789062 220.5625 299.671875 221.214844 301.191406 C 219.695312 303.796875 216.867188 305.390625 213.820312 305.390625 C 209.6875 305.390625 206.136719 302.496094 205.339844 298.441406 C 206.28125 296.558594 207.660156 294.964844 209.398438 294.027344 Z M 212.878906 317.550781 C 207.804688 317.550781 203.742188 312.050781 203.742188 305.316406 C 203.742188 303.652344 203.960938 302.058594 204.46875 300.613281 C 205.410156 302.929688 207.222656 304.8125 209.472656 305.894531 C 209.472656 306.980469 209.761719 308.71875 211.863281 309.007812 C 213.964844 309.296875 214.617188 307.777344 214.835938 306.765625 C 217.589844 306.476562 220.128906 305.101562 221.796875 302.855469 C 221.941406 303.289062 222.011719 303.582031 222.011719 303.652344 C 222.085938 304.230469 222.085938 304.8125 222.085938 305.246094 C 222.011719 312.050781 217.953125 317.550781 212.878906 317.550781 Z M 184.097656 258.125 C 183.007812 268.472656 183.949219 277.523438 183.949219 277.523438 C 183.949219 277.378906 181.992188 268.765625 182.644531 258.125 C 183.445312 245.746094 188.300781 238.074219 188.300781 238.074219 C 185.472656 244.515625 185.402344 245.816406 184.097656 258.125 Z M 121.816406 508.640625 C 117.6875 508.28125 110.21875 505.09375 110.21875 505.09375 C 113.769531 506.253906 118.046875 506.90625 122.109375 507.265625 C 128.921875 507.847656 136.753906 508.785156 136.753906 508.785156 C 135.882812 508.859375 133.417969 509.003906 130.15625 509.003906 C 127.691406 508.933594 124.863281 508.859375 121.816406 508.640625 Z M 337.507812 329.421875 C 339.390625 327.464844 343.234375 321.964844 343.234375 321.964844 C 338.59375 333.039062 328.804688 337.890625 321.554688 337.890625 C 320.324219 337.890625 319.238281 337.746094 318.222656 337.527344 L 318.511719 336.082031 C 323.515625 337.3125 331.632812 335.574219 337.507812 329.421875 Z M 357.878906 310.382812 C 359.980469 307.417969 362.230469 298.511719 362.230469 298.511719 C 362.230469 298.511719 361.359375 307.851562 359.183594 311.035156 C 356.792969 314.582031 350.410156 317.40625 350.410156 317.40625 C 350.410156 317.40625 355.632812 313.570312 357.878906 310.382812 Z M 344.394531 318.203125 C 344.394531 318.203125 339.027344 316.320312 337.289062 314.292969 C 332.429688 308.429688 331.269531 299.527344 330.402344 292.503906 C 329.820312 287.945312 329.242188 281.359375 329.242188 281.359375 C 330.691406 283.601562 331.199219 287.65625 331.851562 292.359375 C 332.792969 299.453125 333.808594 307.777344 338.304688 313.207031 C 339.898438 315.089844 344.394531 318.203125 344.394531 318.203125 Z M 119.570312 513.347656 L 142.914062 510.597656 C 138.347656 512.550781 130.519531 513.855469 124.644531 513.855469 C 122.617188 513.855469 120.875 513.636719 119.570312 513.347656 Z M 387.820312 479.542969 C 386.445312 476.867188 383.398438 464.707031 379.917969 450.589844 C 373.03125 422.867188 364.476562 388.339844 358.167969 381.609375 C 349.757812 372.777344 339.246094 370.460938 329.097656 369.304688 C 328.804688 369.085938 328.152344 368.582031 326.339844 367.058594 L 326.125 366.84375 L 325.832031 366.84375 C 322.0625 367.058594 316.625 366.265625 311.839844 365.539062 C 306.621094 364.742188 303.140625 364.308594 301.472656 364.742188 C 294.441406 361.777344 290.382812 357.796875 290.234375 353.886719 C 290.164062 352.148438 290.089844 349.617188 289.945312 346.71875 C 289.65625 341.21875 289.367188 334.34375 289.292969 328.191406 C 292.917969 323.339844 295.671875 318.128906 297.558594 312.84375 C 300.53125 311.6875 321.917969 302.929688 324.601562 290.550781 C 325.542969 286.351562 325.109375 282.300781 323.367188 278.96875 C 322.207031 272.527344 320.324219 266.375 318.078125 260.65625 C 314.453125 251.609375 304.519531 238.363281 304.519531 238.363281 C 310.609375 247.410156 317.570312 260.148438 321.050781 274.625 C 320.25 274.265625 319.453125 273.902344 318.582031 273.46875 C 317.859375 272.960938 317.132812 272.527344 316.335938 272.238281 C 303.285156 264.492188 287.625 247.699219 287.625 247.699219 C 293.28125 255.15625 302.054688 264.636719 311.988281 271.226562 C 311.117188 271.226562 310.320312 271.296875 309.59375 271.515625 C 304.230469 273.105469 301.039062 278.390625 300.023438 280.34375 C 297.125 278.679688 293.28125 275.785156 291.179688 274.191406 C 284.507812 267.171875 270.007812 249.292969 270.007812 249.292969 C 271.457031 251.390625 279.867188 263.695312 287.769531 272.671875 C 286.394531 272.382812 284.144531 271.515625 281.390625 269.269531 C 275.734375 264.277344 270.082031 257.90625 264.425781 250.449219 L 263.195312 248.785156 L 263.195312 248.859375 C 257.683594 240.246094 253.261719 232.933594 253.261719 232.933594 C 253.550781 233.65625 257.105469 242.269531 263.121094 251.535156 C 262.902344 262.683594 268.921875 270.644531 271.167969 273.324219 C 269.9375 273.613281 267.761719 274.191406 265.152344 275.0625 C 263.484375 275.640625 257.828125 272.382812 256.304688 268.183594 L 256.234375 268.039062 L 256.089844 267.894531 C 256.015625 267.824219 255.945312 267.75 255.871094 267.679688 C 250.433594 258.414062 246.734375 245.167969 246.734375 245.167969 C 246.882812 245.964844 249.199219 258.773438 254.492188 268.113281 C 254.492188 268.402344 254.566406 268.617188 254.566406 268.765625 C 254.566406 268.835938 254.566406 268.835938 254.566406 268.835938 C 254.785156 271.804688 255.363281 275.351562 256.957031 277.160156 C 255.363281 277.59375 253.839844 277.957031 252.390625 278.316406 C 248.984375 276.21875 246.230469 271.371094 244.125 265.289062 C 241.949219 259.136719 240.429688 251.679688 239.484375 244.441406 C 238.109375 233.585938 238.109375 223.308594 239.414062 218.675781 C 239.414062 218.675781 235.789062 226.128906 237.820312 245.023438 C 238.6875 253.417969 240.792969 261.960938 243.761719 268.617188 C 246.808594 275.351562 251.160156 277.8125 252.246094 278.316406 C 249.636719 278.96875 247.097656 279.621094 244.707031 280.128906 C 242.457031 279.695312 233.976562 268.835938 232.960938 259.789062 C 232.960938 259.789062 232.960938 259.714844 232.960938 259.714844 C 232.960938 259.5 232.886719 259.28125 232.886719 258.992188 C 232.816406 258.414062 232.816406 257.832031 232.886719 257.328125 L 232.671875 257.328125 C 232.164062 253.996094 231.582031 249.507812 231.582031 249.507812 C 231.222656 252.550781 231.148438 255.371094 231.367188 257.90625 C 230.929688 260.875 229.769531 272.382812 236.222656 282.011719 C 233.035156 282.660156 230.640625 283.023438 228.757812 283.242188 C 227.015625 280.34375 222.230469 272.09375 219.113281 262.394531 C 217.15625 256.3125 214.910156 243.429688 214.910156 243.429688 C 214.402344 250.089844 215.632812 256.894531 217.664062 263.117188 C 220.78125 272.527344 225.566406 280.34375 228.25 283.386719 C 225.785156 283.675781 224.480469 283.601562 223.753906 283.457031 C 216.574219 281.9375 207.660156 268.328125 204.324219 253.707031 L 204.105469 252.839844 C 202.875 246.976562 200.699219 235.46875 200.699219 235.46875 C 200.988281 242.632812 201.714844 248.785156 202.800781 253.996094 C 200.84375 271.152344 205.484375 281.71875 207.152344 284.832031 C 206.0625 284.90625 204.25 285.121094 201.929688 285.195312 C 198.886719 285.339844 197.144531 274.410156 196.855469 266.664062 L 196.785156 264.277344 L 196.710938 264.347656 C 196.855469 259.210938 197.4375 255.226562 197.507812 255.082031 C 197.507812 255.082031 195.476562 260.441406 195.261719 266.664062 C 192.652344 271.371094 192 280.128906 193.085938 285.265625 C 189.535156 285.195312 186.199219 284.976562 183.226562 284.542969 L 182.9375 284.472656 C 181.777344 284.324219 180.6875 284.109375 179.601562 283.890625 C 171.191406 281.429688 171.914062 261.886719 171.988281 261.671875 L 172.0625 259.355469 C 172.496094 254.722656 173.4375 249.21875 175.179688 242.851562 C 175.179688 242.851562 171.410156 249.582031 170.539062 261.308594 C 166.914062 266.15625 166.914062 273.394531 167.785156 277.957031 C 161.621094 269.488281 163.652344 259.714844 163.652344 259.644531 L 164.085938 257.6875 L 163.941406 257.832031 C 166.695312 243.574219 175.25 231.339844 175.25 231.339844 C 167.566406 240.824219 163.144531 250.304688 162.199219 259.136719 C 158.429688 262.175781 155.601562 266.808594 154.152344 269.488281 C 153.210938 259.5 159.589844 248.425781 159.664062 248.351562 L 160.460938 246.976562 L 160.316406 246.976562 C 160.386719 246.902344 160.386719 246.832031 160.460938 246.757812 C 167.277344 234.09375 178.007812 225.984375 178.007812 225.984375 C 178.007812 225.984375 168.941406 229.820312 158.214844 247.339844 C 152.992188 248.132812 149.804688 246.832031 148.351562 245.964844 C 157.5625 241.765625 167.277344 231.339844 180.398438 217.082031 C 183.152344 214.113281 186.125 210.929688 189.171875 207.601562 C 205.992188 189.722656 228.464844 170.394531 253.914062 178.285156 C 252.320312 178.9375 249.347656 180.601562 248.042969 184.363281 C 248.042969 184.363281 252.972656 180.457031 256.8125 178.863281 C 272.257812 173.867188 295.820312 178.140625 311.550781 199.277344 C 317.785156 207.671875 321.847656 217.660156 325.6875 227.359375 C 327.792969 232.570312 329.894531 237.929688 332.429688 242.996094 C 341.277344 261.164062 352.367188 272.816406 365.347656 277.667969 C 366.941406 279.910156 367.523438 283.386719 366.867188 286.425781 C 366.289062 289.101562 364.550781 291.492188 362.230469 292.867188 C 358.675781 286.207031 352.515625 279.695312 347.078125 274.121094 C 340.914062 267.824219 331.199219 255.808594 331.199219 255.808594 C 333.738281 262.683594 339.679688 268.765625 345.988281 275.132812 C 351.933594 281.140625 358.386719 288.453125 361.648438 295.472656 L 363.242188 294.820312 C 363.171875 294.605469 363.027344 294.386719 362.953125 294.171875 C 365.636719 292.578125 367.667969 289.828125 368.390625 286.714844 C 369.1875 283.242188 368.390625 279.1875 366.507812 276.652344 L 366.363281 276.507812 L 366 276.4375 C 353.3125 271.730469 342.4375 260.292969 333.738281 242.417969 C 331.269531 237.347656 329.167969 232.066406 327.066406 226.855469 C 323.152344 217.082031 319.089844 207.019531 312.710938 198.480469 C 296.472656 176.691406 272.109375 172.347656 256.160156 177.5625 C 244.34375 173.363281 231.875 174.59375 219.1875 181.253906 C 209.472656 186.320312 199.609375 194.425781 188.082031 206.660156 C 184.964844 209.988281 182.066406 213.101562 179.3125 216.140625 C 165.753906 230.835938 155.894531 241.476562 146.902344 245.457031 L 145.960938 245.890625 L 146.6875 246.613281 C 146.832031 246.757812 150.238281 250.089844 157.996094 249.148438 C 156.109375 252.765625 151.398438 263.046875 153.355469 272.238281 L 153.789062 274.335938 L 154.734375 272.382812 C 154.734375 272.308594 157.777344 265.796875 162.199219 261.597656 C 161.839844 265.507812 161.910156 274.480469 169.160156 281.792969 L 172.0625 284.761719 L 170.320312 280.996094 C 169.160156 278.535156 167.929688 270.429688 170.683594 264.566406 C 170.753906 270.285156 171.84375 283.386719 179.457031 285.628906 C 180.542969 285.847656 181.703125 286.0625 182.789062 286.207031 C 182.9375 286.640625 183.226562 287.4375 183.804688 288.8125 C 184.457031 290.332031 185.183594 292.289062 185.691406 293.589844 C 188.226562 300.972656 191.5625 313.425781 193.8125 321.675781 C 194.824219 325.441406 195.625 328.40625 196.058594 329.925781 C 198.089844 336.660156 225.132812 355.261719 235.714844 358.230469 C 238.179688 358.953125 241.878906 358.734375 246.375 357.578125 C 246.230469 362.5 245.503906 365.976562 244.417969 367.785156 C 243.617188 369.015625 242.097656 370.101562 239.777344 371.042969 C 239.484375 370.679688 239.050781 370.390625 238.253906 370.390625 C 237.527344 370.316406 236.441406 370.605469 235.28125 370.96875 C 234.917969 370.460938 234.410156 369.882812 233.613281 370.027344 C 233.105469 370.101562 232.382812 370.316406 231.4375 370.605469 C 229.335938 371.1875 226.074219 372.128906 221.578125 372.5625 C 218.460938 372.851562 215.851562 372.5625 213.675781 372.34375 C 211.355469 372.128906 209.617188 371.910156 208.601562 372.707031 L 208.457031 372.777344 C 208.09375 373.140625 207.804688 373.574219 207.441406 374.007812 C 205.773438 374.007812 198.742188 374.152344 193.59375 377.265625 C 189.460938 379.726562 186.632812 383.492188 185.328125 385.589844 C 185.253906 385.300781 185.183594 385.011719 185.109375 384.722656 C 184.53125 382.621094 183.949219 380.667969 183.804688 379.511719 C 187.070312 378.207031 192.578125 372.199219 193.230469 369.085938 C 193.664062 367.058594 190.765625 356.492188 190.765625 356.421875 C 190.113281 354.175781 188.15625 351.351562 186.632812 350.703125 C 185.546875 350.195312 184.242188 350.414062 183.152344 350.773438 C 183.152344 349.542969 183.082031 347.660156 182.285156 346.429688 C 181.339844 344.910156 176.992188 340.785156 175.179688 341.507812 C 174.742188 341.652344 174.308594 341.941406 173.875 342.160156 C 173.945312 340.710938 173.875 338.6875 173.222656 337.601562 C 172.207031 336.007812 170.101562 333.257812 167.785156 332.75 C 166.695312 332.535156 165.535156 332.535156 164.449219 332.894531 C 168.507812 327.828125 176.628906 317.765625 177.714844 312.84375 C 178.660156 308.503906 176.917969 305.96875 175.179688 305.101562 C 174.019531 304.519531 172.929688 304.664062 172.277344 305.390625 C 169.378906 308.863281 160.894531 318.203125 155.457031 324.066406 C 154.804688 322.039062 153.789062 320.226562 152.484375 318.707031 C 150.457031 316.390625 147.917969 315.234375 145.597656 315.523438 C 144.65625 315.667969 143.859375 316.03125 143.496094 316.679688 C 142.914062 317.550781 143.132812 318.636719 143.207031 319.289062 L 145.886719 334.125 C 140.886719 339.265625 135.519531 344.839844 133.707031 347.082031 C 132.546875 348.3125 133.273438 352.003906 135.011719 358.011719 C 135.085938 358.375 135.230469 358.734375 135.304688 359.027344 C 136.101562 361.921875 142.191406 387.253906 142.769531 390.222656 C 143.132812 393.261719 123.921875 430.976562 112.101562 450.519531 C 105.796875 460.871094 99.707031 474.839844 95.71875 488.011719 C 95.28125 487.796875 94.777344 487.652344 94.269531 487.796875 C 92.890625 488.230469 92.457031 490.472656 92.019531 492.789062 C 91.949219 493.296875 91.804688 493.804688 91.730469 494.238281 C 91.511719 495.105469 91.152344 495.902344 90.644531 496.769531 C 89.554688 498.796875 88.105469 501.332031 88.25 507.554688 L 88.25 508.0625 L 88.757812 508.207031 C 88.757812 508.207031 90.789062 508.785156 92.164062 509.292969 C 92.308594 509.367188 110 515.878906 133.34375 521.960938 C 148.5 525.941406 162.851562 528.765625 164.449219 529.054688 L 164.882812 529.125 L 165.171875 528.765625 C 168.363281 524.347656 170.539062 518.632812 171.769531 514.722656 C 172.0625 518.488281 172.566406 521.960938 173.292969 525.21875 C 173.367188 525.433594 173.367188 525.652344 173.4375 525.796875 C 173.511719 526.085938 173.582031 526.375 173.65625 526.59375 C 173.726562 526.882812 173.800781 527.171875 173.875 527.460938 C 173.945312 527.679688 173.945312 527.894531 174.019531 528.113281 C 174.089844 528.402344 174.164062 528.691406 174.234375 528.980469 C 174.234375 529.054688 174.234375 529.054688 174.234375 529.125 L 174.164062 529.707031 L 174.742188 529.921875 C 174.886719 529.996094 190.332031 535.351562 215.851562 537.59375 C 222.304688 538.175781 229.84375 538.535156 238.253906 538.535156 C 260.367188 538.535156 288.640625 535.785156 320.324219 526.375 L 320.757812 526.230469 L 322.644531 516.894531 C 322.714844 516.675781 322.789062 516.386719 322.789062 516.171875 L 322.863281 515.808594 C 323.078125 513.203125 321.339844 511.03125 320.613281 510.308594 C 323.007812 495.035156 327.71875 480.703125 329.894531 474.695312 C 330.546875 481.207031 331.054688 487.433594 331.34375 491.703125 L 331.5625 494.457031 C 331.707031 496.625 331.851562 498.941406 331.996094 501.332031 C 332.503906 509.871094 333.011719 518.777344 335.621094 522.972656 L 335.910156 523.480469 L 336.492188 523.265625 C 336.855469 523.117188 374.625 510.089844 391.738281 500.609375 L 392.097656 500.390625 L 392.097656 499.957031 C 391.953125 491.632812 390.578125 484.753906 387.820312 479.542969 Z M 238.324219 372.996094 C 238.6875 372.851562 239.125 372.777344 239.484375 372.632812 L 240.285156 372.34375 C 242.964844 371.257812 244.777344 369.957031 245.722656 368.4375 C 247.027344 366.265625 247.75 362.28125 247.894531 356.566406 L 247.894531 355.625 L 246.953125 355.839844 C 242.3125 357.070312 238.472656 357.433594 236.078125 356.710938 C 225.203125 353.597656 199.175781 335.210938 197.4375 329.347656 C 197 327.828125 196.203125 324.859375 195.1875 321.167969 C 192.941406 312.917969 189.605469 300.394531 187.070312 293.011719 C 186.5625 291.636719 185.835938 289.683594 185.183594 288.164062 C 184.964844 287.511719 184.675781 286.859375 184.457031 286.351562 C 187.503906 286.714844 190.765625 286.859375 194.246094 286.933594 L 195.1875 286.933594 L 194.898438 285.992188 C 193.738281 281.9375 194.027344 274.554688 195.769531 269.703125 C 196.203125 275.566406 197.582031 286.714844 202.148438 286.714844 C 202.148438 286.714844 202.222656 286.714844 202.222656 286.714844 C 206.0625 286.496094 208.601562 286.207031 208.601562 286.207031 L 209.761719 286.0625 L 209.109375 285.121094 C 209.035156 285.050781 203.019531 275.496094 204.035156 258.125 C 208.09375 271.730469 216.359375 283.386719 223.464844 284.90625 C 225.566406 285.339844 230.207031 284.832031 237.527344 283.386719 L 238.617188 283.167969 L 237.964844 282.226562 C 233.6875 276.292969 232.597656 269.34375 232.453125 264.347656 C 235.136719 272.890625 242.167969 281.574219 244.707031 281.792969 L 244.996094 281.792969 C 249.128906 280.851562 253.695312 279.695312 258.699219 278.390625 L 260.65625 277.882812 L 258.769531 277.015625 C 257.609375 276.507812 256.667969 274.335938 256.234375 271.226562 C 258.769531 274.699219 263.410156 277.304688 265.585938 276.582031 C 269.792969 275.207031 272.691406 274.625 272.691406 274.625 L 273.996094 274.335938 L 273.054688 273.394531 C 272.980469 273.324219 264.933594 265.289062 264.570312 253.203125 C 269.792969 260.003906 275.15625 265.867188 280.449219 270.574219 C 284.652344 274.046875 287.917969 274.410156 288.859375 274.480469 C 290.019531 275.421875 296.035156 280.199219 299.953125 282.226562 L 300.605469 282.589844 L 300.894531 281.863281 C 300.894531 281.792969 304.011719 274.917969 309.882812 273.179688 C 311.625 272.671875 313.726562 272.960938 315.757812 273.832031 C 316.265625 274.121094 316.769531 274.410156 317.351562 274.699219 C 318.003906 275.132812 318.582031 275.566406 319.164062 276.074219 C 322.933594 279.546875 324.3125 284.761719 323.078125 290.480469 C 320.394531 302.785156 296.832031 311.757812 296.617188 311.832031 L 296.328125 311.976562 L 296.179688 312.265625 C 294.296875 317.621094 291.542969 322.835938 287.917969 327.757812 L 287.769531 327.972656 L 287.769531 328.191406 C 287.84375 334.414062 288.207031 341.4375 288.421875 347.011719 C 288.570312 349.976562 288.714844 352.511719 288.714844 354.175781 C 288.859375 359.820312 295.09375 363.730469 299.589844 365.757812 C 299.152344 366.480469 298.355469 367.855469 296.90625 370.101562 C 291.394531 379.003906 278.417969 382.984375 269.863281 385.664062 C 266.382812 386.75 263.847656 387.542969 262.613281 388.339844 C 258.335938 391.308594 254.566406 396.808594 250.214844 406.4375 C 250 402.023438 249.417969 394.058594 248.546875 391.671875 C 247.605469 389.066406 246.445312 388.269531 243.472656 386.167969 C 242.457031 385.445312 241.226562 384.578125 239.632812 383.347656 C 237.457031 381.683594 236.367188 379.871094 236.222656 377.917969 C 236.296875 375.820312 237.3125 374.007812 238.324219 372.996094 Z M 233.6875 372.777344 C 233.902344 372.707031 234.121094 372.707031 234.265625 372.632812 L 235.933594 372.199219 C 236.367188 372.054688 236.804688 371.980469 237.167969 371.910156 C 237.167969 371.910156 237.167969 371.910156 237.09375 371.910156 L 237.167969 372.128906 C 235.933594 373.429688 234.699219 375.527344 234.773438 377.988281 C 234.917969 380.378906 236.222656 382.550781 238.761719 384.503906 C 240.355469 385.734375 241.589844 386.605469 242.605469 387.328125 C 245.503906 389.355469 246.300781 390.003906 247.171875 392.175781 C 248.332031 395.21875 248.910156 409.40625 248.910156 409.550781 L 248.910156 409.621094 C 246.519531 415.484375 244.5625 422.507812 243.835938 430.46875 C 243.835938 430.46875 248.042969 415.484375 250.433594 409.621094 C 250.433594 409.621094 250.433594 409.550781 250.433594 409.550781 C 255.144531 398.621094 259.0625 392.683594 263.484375 389.570312 C 264.5 388.847656 267.179688 388.050781 270.296875 387.039062 C 277.765625 384.722656 288.351562 381.464844 295.019531 374.804688 C 288.785156 390.078125 282.042969 419.320312 279.796875 435.96875 C 272.472656 435.605469 260.148438 440.09375 249.273438 444.078125 C 240.792969 447.1875 232.742188 450.085938 230.132812 449.503906 C 224.40625 448.273438 211.066406 434.957031 209.035156 432.855469 C 211.136719 421.128906 223.171875 382.984375 233.324219 373.066406 Z M 113.40625 451.097656 C 124.136719 433.363281 145.019531 393.191406 144.292969 389.714844 C 143.714844 386.75 137.550781 361.34375 136.753906 358.445312 C 136.679688 358.15625 136.609375 357.796875 136.464844 357.433594 C 134.867188 351.644531 134.289062 348.457031 134.867188 347.804688 C 136.753906 345.488281 142.480469 339.554688 147.265625 334.632812 L 147.554688 334.34375 L 144.726562 318.707031 C 144.65625 318.128906 144.511719 317.550781 144.800781 317.1875 C 145.019531 316.828125 145.597656 316.753906 145.886719 316.679688 C 148.5 316.390625 150.746094 318.492188 151.542969 319.433594 C 152.992188 321.097656 154.082031 323.195312 154.589844 325.441406 L 154.878906 326.816406 L 155.820312 325.800781 C 161.1875 320.082031 170.539062 309.804688 173.582031 306.113281 C 173.726562 305.96875 174.164062 305.894531 174.671875 306.1875 C 175.976562 306.835938 177.207031 308.792969 176.484375 312.339844 C 175.46875 317.042969 166.914062 327.539062 163.289062 332.027344 C 162.273438 333.257812 161.621094 334.125 161.332031 334.488281 L 158.9375 338.035156 L 162.417969 335.429688 C 164.304688 334.054688 166.042969 333.546875 167.710938 333.910156 C 169.015625 334.199219 170.683594 335.789062 172.207031 338.105469 C 172.785156 338.976562 172.714844 341.726562 172.566406 343.171875 L 172.351562 344.839844 L 173.726562 343.824219 C 173.726562 343.824219 174.886719 342.957031 175.902344 342.523438 C 176.699219 342.378906 180.109375 345.054688 181.269531 346.867188 C 181.992188 348.023438 181.921875 350.558594 181.847656 351.425781 L 181.703125 352.582031 L 182.789062 352.148438 C 183.371094 351.933594 185.183594 351.207031 186.199219 351.644531 C 187.214844 352.078125 188.953125 354.394531 189.460938 356.421875 C 190.402344 359.894531 192.144531 367.277344 191.925781 368.4375 C 191.417969 371.1875 185.617188 377.265625 183.007812 377.917969 L 182.5 378.0625 L 182.5 378.570312 C 182.429688 379.800781 183.082031 381.972656 183.804688 384.722656 C 184.820312 388.125 185.980469 392.394531 185.761719 394.929688 C 185.109375 400.644531 179.3125 405.351562 176.339844 406.582031 L 176.191406 406.652344 L 176.046875 406.800781 C 174.527344 408.753906 170.03125 419.464844 164.882812 431.914062 C 162.128906 438.503906 159.375 445.234375 156.761719 451.167969 C 152.992188 459.855469 150.527344 471.945312 148.425781 482.65625 C 147.265625 488.449219 146.179688 494.019531 144.945312 498.21875 L 144.945312 498.363281 C 143.277344 498.148438 140.8125 498 137.550781 497.785156 C 133.273438 497.496094 127.328125 497.207031 120.152344 496.410156 C 108.40625 495.105469 101.445312 492.789062 96.949219 488.519531 C 100.9375 475.5625 107.101562 461.519531 113.40625 451.097656 Z M 174.671875 524.347656 C 174.597656 523.914062 174.527344 523.480469 174.378906 523.046875 C 174.308594 522.757812 174.234375 522.394531 174.234375 522.105469 C 174.164062 521.742188 174.089844 521.382812 174.089844 521.019531 C 174.019531 520.441406 173.945312 519.933594 173.875 519.355469 C 173.875 519.210938 173.800781 518.992188 173.800781 518.847656 C 173.726562 518.050781 173.582031 517.257812 173.511719 516.460938 C 173.511719 516.386719 173.511719 516.316406 173.511719 516.316406 C 172.421875 505.675781 173.511719 496.410156 173.511719 496.265625 L 173.511719 496.046875 L 173.367188 495.832031 C 173.292969 495.6875 164.011719 478.746094 165.679688 462.027344 C 166.769531 451.460938 180.253906 420.769531 180.253906 420.769531 C 179.09375 423.300781 177.789062 425.835938 176.554688 428.296875 C 171.046875 439.445312 165.316406 450.953125 164.230469 461.808594 C 164.011719 464.199219 163.941406 466.585938 164.085938 468.902344 C 163.652344 470.929688 163.070312 473.320312 162.273438 475.851562 C 160.679688 484.464844 159.300781 497.0625 162.347656 506.976562 C 162.347656 506.976562 160.316406 516.894531 157.921875 526.015625 C 151.976562 524.785156 143.0625 522.757812 133.78125 520.296875 C 110.507812 514.214844 92.964844 507.773438 92.746094 507.703125 C 91.730469 507.339844 90.496094 506.976562 89.773438 506.761719 C 89.699219 501.257812 90.933594 499.015625 91.949219 497.207031 C 92.457031 496.265625 92.964844 495.394531 93.179688 494.308594 C 93.253906 493.804688 93.398438 493.296875 93.46875 492.789062 C 93.6875 491.488281 94.195312 489.097656 94.703125 488.882812 C 94.777344 488.882812 95.066406 488.953125 95.574219 489.386719 C 100.285156 494.019531 107.609375 496.625 119.933594 497.929688 C 127.109375 498.726562 133.054688 499.085938 137.40625 499.304688 C 140.957031 499.523438 143.496094 499.667969 145.089844 499.957031 C 146.539062 501.042969 145.816406 503.792969 145.234375 506.035156 C 144.945312 507.121094 144.726562 508.0625 144.65625 508.785156 C 144.65625 509.4375 144.945312 510.164062 145.234375 510.957031 C 147.265625 516.894531 144.945312 521.238281 144.945312 521.238281 C 148.789062 516.605469 147.410156 512.769531 146.539062 510.453125 C 146.324219 509.800781 146.105469 509.148438 146.105469 508.785156 C 146.105469 508.207031 146.394531 507.339844 146.613281 506.398438 C 147.265625 503.9375 148.136719 500.679688 146.179688 499.015625 L 146.25 498.726562 C 147.484375 494.457031 148.570312 488.882812 149.730469 483.019531 C 151.832031 472.449219 154.296875 460.433594 157.996094 451.820312 C 160.605469 445.886719 163.359375 439.082031 166.117188 432.496094 C 170.902344 420.914062 175.46875 409.984375 176.992188 407.8125 C 179.964844 406.4375 186.414062 401.585938 187.140625 395 C 187.359375 392.828125 186.707031 389.933594 185.980469 386.964844 C 186.632812 385.808594 189.679688 380.8125 194.464844 377.988281 C 198.449219 375.601562 203.886719 375.09375 206.425781 374.949219 C 194.824219 390.441406 174.960938 434.015625 172.421875 457.828125 C 171.261719 468.6875 172.351562 481.789062 173.367188 494.453125 C 174.308594 505.53125 175.105469 515.664062 174.671875 524.347656 Z M 319.453125 525 C 276.171875 537.8125 239.339844 538.03125 215.996094 536.003906 C 193.304688 534.046875 178.730469 529.5625 175.757812 528.546875 C 176.847656 518.992188 175.832031 507.195312 174.816406 494.746094 C 173.800781 482.148438 172.714844 469.121094 173.875 458.335938 C 176.554688 433.21875 198.742188 385.953125 209.6875 373.648438 C 210.339844 373.285156 211.863281 373.429688 213.675781 373.648438 C 215.851562 373.863281 218.605469 374.152344 221.796875 373.863281 C 226.4375 373.429688 229.769531 372.488281 231.945312 371.910156 C 232.089844 371.835938 232.308594 371.835938 232.453125 371.765625 L 232.382812 371.835938 C 221.941406 381.828125 209.472656 421.492188 207.511719 432.929688 L 207.441406 433.292969 L 207.730469 433.582031 C 208.382812 434.230469 223.246094 449.433594 229.84375 450.878906 C 232.886719 451.53125 240.355469 448.855469 249.78125 445.378906 C 260.875 441.324219 273.488281 436.765625 280.375 437.417969 L 281.101562 437.488281 L 281.171875 436.765625 C 284.4375 411.214844 296.035156 369.015625 301.617188 366.410156 C 302.851562 365.902344 307.347656 366.625 311.625 367.207031 C 316.410156 367.929688 321.773438 368.726562 325.617188 368.507812 C 326.703125 369.449219 327.429688 369.957031 327.792969 370.316406 C 326.414062 372.417969 321.992188 379.726562 320.902344 387.328125 C 311.1875 455.945312 309.957031 500.96875 310.828125 511.03125 C 311.042969 513.347656 311.984375 515.085938 313.507812 516.242188 C 315.902344 517.980469 319.164062 517.90625 320.832031 517.691406 Z M 336.492188 521.742188 C 334.316406 517.617188 333.808594 509.003906 333.375 501.332031 C 333.230469 498.871094 333.082031 496.625 332.9375 494.382812 L 332.722656 491.632812 C 332.359375 486.636719 331.707031 479.039062 330.910156 471.4375 C 330.835938 470.570312 330.765625 469.554688 330.617188 468.542969 L 330.617188 468.46875 C 329.894531 462.316406 328.371094 453.992188 326.777344 448.347656 C 326.050781 445.8125 325.328125 443.714844 324.601562 442.699219 C 324.601562 442.699219 325.328125 446.320312 326.269531 451.167969 L 314.523438 515.011719 C 314.523438 515.011719 314.523438 515.011719 314.453125 515.011719 C 313.21875 514.144531 312.492188 512.695312 312.347656 510.8125 C 311.40625 500.824219 312.710938 455.945312 322.425781 387.472656 C 323.515625 380.015625 328.082031 372.5625 329.242188 370.898438 C 339.027344 372.054688 349.179688 374.296875 357.152344 382.765625 C 363.242188 389.136719 372.089844 424.96875 378.613281 451.097656 C 382.3125 465.863281 385.210938 477.515625 386.660156 480.339844 C 389.273438 485.261719 390.578125 491.777344 390.648438 499.667969 C 374.554688 508.351562 341.203125 520.078125 336.492188 521.742188 Z M 336.492188 521.742188 " fill-opacity="1" fill-rule="nonzero"/></g></svg>